<?xml version="1.0" encoding="utf-8"?>
<!DOCTYPE svg
  PUBLIC '-//W3C//DTD SVG 1.0//EN'
  'http://www.w3.org/TR/2001/REC-SVG-20010904/DTD/svg10.dtd'>
<svg width="339.0" height="100.0" preserveAspectRatio="xMinYMin meet" viewBox="0 0 339 100" xmlns="http://www.w3.org/2000/svg" version="1.0" fill-rule="evenodd" xmlns:xlink="http://www.w3.org/1999/xlink"><rect width="100%" height="100%" fill="white"/>
	<title>...</title>
	<desc>...</desc>
	<clipPath id="clip">
		<rect x="0" y="0" width="339.0" height="100.0"/>
	</clipPath>
	<g id="group" transform="scale(1,-1) translate(0,-100)" style="clip-path: url(#clip)">
		<g transform="">
			<g transform="">
				<rect x="0" y="0" width="339" height="100" style="stroke: none; stroke-linecap: butt; stroke-width: 0; fill: none; fill-rule: evenodd;"/>
				<rect x="27" y="0" width="3" height="100" style="stroke: none; stroke-linecap: butt; stroke-width: 0; fill: rgb(0%,0%,0%); fill-rule: evenodd;"/>
				<rect x="33" y="0" width="3" height="100" style="stroke: none; stroke-linecap: butt; stroke-width: 0; fill: rgb(0%,0%,0%); fill-rule: evenodd;"/>
				<rect x="45" y="9.6" width="6" height="90.4" style="stroke: none; stroke-linecap: butt; stroke-width: 0; fill: rgb(0%,0%,0%); fill-rule: evenodd;"/>
				<rect x="54" y="9.6" width="3" height="90.4" style="stroke: none; stroke-linecap: butt; stroke-width: 0; fill: rgb(0%,0%,0%); fill-rule: evenodd;"/>
				<rect x="63" y="9.6" width="6" height="90.4" style="stroke: none; stroke-linecap: butt; stroke-width: 0; fill: rgb(0%,0%,0%); fill-rule: evenodd;"/>
				<rect x="75" y="9.6" width="3" height="90.4" style="stroke: none; stroke-linecap: butt; stroke-width: 0; fill: rgb(0%,0%,0%); fill-rule: evenodd;"/>
				<rect x="84" y="9.6" width="3" height="90.4" style="stroke: none; stroke-linecap: butt; stroke-width: 0; fill: rgb(0%,0%,0%); fill-rule: evenodd;"/>
				<rect x="96" y="9.6" width="3" height="90.4" style="stroke: none; stroke-linecap: butt; stroke-width: 0; fill: rgb(0%,0%,0%); fill-rule: evenodd;"/>
				<rect x="111" y="9.6" width="3" height="90.4" style="stroke: none; stroke-linecap: butt; stroke-width: 0; fill: rgb(0%,0%,0%); fill-rule: evenodd;"/>
				<rect x="117" y="9.6" width="3" height="90.4" style="stroke: none; stroke-linecap: butt; stroke-width: 0; fill: rgb(0%,0%,0%); fill-rule: evenodd;"/>
				<rect x="126" y="9.6" width="6" height="90.4" style="stroke: none; stroke-linecap: butt; stroke-width: 0; fill: rgb(0%,0%,0%); fill-rule: evenodd;"/>
				<rect x="135" y="9.6" width="6" height="90.4" style="stroke: none; stroke-linecap: butt; stroke-width: 0; fill: rgb(0%,0%,0%); fill-rule: evenodd;"/>
				<rect x="150" y="9.6" width="6" height="90.4" style="stroke: none; stroke-linecap: butt; stroke-width: 0; fill: rgb(0%,0%,0%); fill-rule: evenodd;"/>
				<rect x="159" y="9.6" width="3" height="90.4" style="stroke: none; stroke-linecap: butt; stroke-width: 0; fill: rgb(0%,0%,0%); fill-rule: evenodd;"/>
				<rect x="165" y="0" width="3" height="100" style="stroke: none; stroke-linecap: butt; stroke-width: 0; fill: rgb(0%,0%,0%); fill-rule: evenodd;"/>
				<rect x="171" y="0" width="3" height="100" style="stroke: none; stroke-linecap: butt; stroke-width: 0; fill: rgb(0%,0%,0%); fill-rule: evenodd;"/>
				<rect x="177" y="9.6" width="3" height="90.4" style="stroke: none; stroke-linecap: butt; stroke-width: 0; fill: rgb(0%,0%,0%); fill-rule: evenodd;"/>
				<rect x="183" y="9.6" width="9" height="90.4" style="stroke: none; stroke-linecap: butt; stroke-width: 0; fill: rgb(0%,0%,0%); fill-rule: evenodd;"/>
				<rect x="198" y="9.6" width="6" height="90.4" style="stroke: none; stroke-linecap: butt; stroke-width: 0; fill: rgb(0%,0%,0%); fill-rule: evenodd;"/>
				<rect x="207" y="9.6" width="6" height="90.4" style="stroke: none; stroke-linecap: butt; stroke-width: 0; fill: rgb(0%,0%,0%); fill-rule: evenodd;"/>
				<rect x="219" y="9.6" width="6" height="90.4" style="stroke: none; stroke-linecap: butt; stroke-width: 0; fill: rgb(0%,0%,0%); fill-rule: evenodd;"/>
				<rect x="228" y="9.6" width="6" height="90.4" style="stroke: none; stroke-linecap: butt; stroke-width: 0; fill: rgb(0%,0%,0%); fill-rule: evenodd;"/>
				<rect x="240" y="9.6" width="9" height="90.4" style="stroke: none; stroke-linecap: butt; stroke-width: 0; fill: rgb(0%,0%,0%); fill-rule: evenodd;"/>
				<rect x="255" y="9.6" width="3" height="90.4" style="stroke: none; stroke-linecap: butt; stroke-width: 0; fill: rgb(0%,0%,0%); fill-rule: evenodd;"/>
				<rect x="261" y="9.6" width="9" height="90.4" style="stroke: none; stroke-linecap: butt; stroke-width: 0; fill: rgb(0%,0%,0%); fill-rule: evenodd;"/>
				<rect x="276" y="9.6" width="3" height="90.4" style="stroke: none; stroke-linecap: butt; stroke-width: 0; fill: rgb(0%,0%,0%); fill-rule: evenodd;"/>
				<rect x="282" y="9.6" width="3" height="90.4" style="stroke: none; stroke-linecap: butt; stroke-width: 0; fill: rgb(0%,0%,0%); fill-rule: evenodd;"/>
				<rect x="297" y="9.6" width="3" height="90.4" style="stroke: none; stroke-linecap: butt; stroke-width: 0; fill: rgb(0%,0%,0%); fill-rule: evenodd;"/>
				<rect x="303" y="0" width="3" height="100" style="stroke: none; stroke-linecap: butt; stroke-width: 0; fill: rgb(0%,0%,0%); fill-rule: evenodd;"/>
				<rect x="309" y="0" width="3" height="100" style="stroke: none; stroke-linecap: butt; stroke-width: 0; fill: rgb(0%,0%,0%); fill-rule: evenodd;"/>
				<text x="3" y="1.92" style="font-family: Helvetica; font-size: 8px;fill: rgb(0%,0%,0%); stroke:none;" transform="translate(0,3) scale(1,-1)">3</text>
				<text x="85.656" y="1.92" style="font-family: Helvetica; font-size: 8px;fill: rgb(0%,0%,0%); stroke:none;" transform="translate(0,3) scale(1,-1)">017620</text>
				<text x="226.656" y="1.92" style="font-family: Helvetica; font-size: 8px;fill: rgb(0%,0%,0%); stroke:none;" transform="translate(0,3) scale(1,-1)">422003</text>
			</g>
		</g>
	</g>
</svg>
